<?xml version="1.0" encoding="UTF-8"?>
<svg width="76px" height="61px" viewBox="0 0 76 61" version="1.1" xmlns="http://www.w3.org/2000/svg" xmlns:xlink="http://www.w3.org/1999/xlink">
    <!-- Generator: Sketch 44.1 (41455) - http://www.bohemiancoding.com/sketch -->
    <title>Group</title>
    <desc>Created with Sketch.</desc>
    <defs>
        <path d="M12.4689941,27.0629883 L3.4689941,17.5161133 L12.4689941,17.5161133 L12.4689941,15.3071289 C12.4689941,14 13.8879394,12.5161133 15.1926269,12.5161133 L38.5891113,12.5161133 L49.4689941,0.5161133 L4.4689941,0.5161133 C2.3234863,0.5161133 0.4729003,2.4121094 0.4729003,4.5620117 L0.4689941,52.515625 L12.4689941,40.515625 L12.4689941,27.0629883 Z" id="path-1"></path>
        <path d="M12.4689941,27.0629883 L3.4689941,17.5161133 L12.4689941,17.5161133 L12.4689941,15.3071289 C12.4689941,14 13.8879394,12.5161133 15.1926269,12.5161133 L38.5891113,12.5161133 L49.4689941,0.5161133 L4.4689941,0.5161133 C2.3234863,0.5161133 0.4729003,2.4121094 0.4729003,4.5620117 L0.4689941,52.515625 L12.4689941,40.515625 L12.4689941,27.0629883 Z" id="path-3"></path>
        <linearGradient x1="50.0007107%" y1="-0.00128361452%" x2="50.0007107%" y2="99.9987164%" id="linearGradient-5">
            <stop stop-color="#28E7CA" offset="0%"></stop>
            <stop stop-color="#0FEE88" stop-opacity="0.26" offset="100%"></stop>
        </linearGradient>
        <path d="M48.4689941,27.515625 L48.4689941,0.5161133 L36.4689941,12.5161133 L36.4689941,36.515625 C36.4689941,38.515625 35.4689941,39.515625 33.4689941,39.515625 L11.3234863,39.515625 L0.4689941,50.515625 L44.7990722,50.515625 C46.9494628,50.515625 48.4689941,48.6679688 48.4689941,46.515625 L48.4689941,41.515625 L63.4689941,41.515625 L48.4689941,27.515625 Z" id="path-6"></path>
        <path d="M48.4689941,27.515625 L48.4689941,0.5161133 L36.4689941,12.5161133 L36.4689941,36.515625 C36.4689941,38.515625 35.4006347,39.515625 34.0939941,39.515625 L12.3234863,39.515625 L0.4689941,50.515625 L44.7990722,50.515625 C46.9494628,50.515625 48.4689941,48.6679688 48.4689941,46.515625 L48.4689941,41.515625 L63.4689941,41.515625 L48.4689941,27.515625 Z" id="path-8"></path>
        <linearGradient x1="50.0020946%" y1="-0.000743373747%" x2="50.0020946%" y2="100%" id="linearGradient-10">
            <stop stop-color="#FFC514" offset="0%"></stop>
            <stop stop-color="#F22C4B" offset="100%"></stop>
        </linearGradient>
    </defs>
    <g id="Page-1" stroke="none" stroke-width="1" fill="none" fill-rule="evenodd">
        <g id="icon">
            <g id="Group">
                <g>
                    <g>
                        <path d="M12.4689941,27.0629883 L3.4689941,17.5161133 L12.4689941,17.5161133 L12.4689941,15.3071289 C12.4689941,14 13.8879394,12.5161133 15.1926269,12.5161133 L38.5891113,12.5161133 L49.4689941,0.5161133 L4.4689941,0.5161133 C2.3234863,0.5161133 0.4729003,2.4121094 0.4729003,4.5620117 L0.4689941,52.515625 L12.4689941,40.515625 L12.4689941,27.0629883 Z" id="SVGID_1_" fill="#1CC0A8" fill-rule="nonzero"></path>
                        <g id="Clipped">
                            <mask id="mask-2" fill="white">
                                <use xlink:href="#path-1"></use>
                            </mask>
                            <g id="SVGID_2_"></g>
                            <polygon id="Shape" fill="#1CC0A8" fill-rule="nonzero" mask="url(#mask-2)" points="-12.2683105 66.4707031 -12.2683105 -14.230957 64.4689941 -14.230957"></polygon>
                        </g>
                    </g>
                    <g id="Clipped">
                        <mask id="mask-4" fill="white">
                            <use xlink:href="#path-3"></use>
                        </mask>
                        <g id="SVGID_4_"></g>
                        <polygon id="Shape" fill="url(#linearGradient-5)" fill-rule="nonzero" mask="url(#mask-4)" points="25.998291 26.4741211 -12.0310059 -11.5668945 18.3059082 -6.1469727 56.6652832 -5.7797852"></polygon>
                    </g>
                </g>
                <g transform="translate(12.000000, 10.000000)">
                    <path d="M48.4689941,27.515625 L48.4689941,0.5161133 L36.4689941,12.5161133 L36.4689941,36.515625 C36.4689941,38.515625 35.4689941,39.515625 33.4689941,39.515625 L11.3234863,39.515625 L0.4689941,50.515625 L44.7990722,50.515625 C46.9494628,50.515625 48.4689941,48.6679688 48.4689941,46.515625 L48.4689941,41.515625 L63.4689941,41.515625 L48.4689941,27.515625 Z" id="SVGID_6_" fill="#E62E52" fill-rule="nonzero"></path>
                    <g id="Clipped">
                        <mask id="mask-7" fill="white">
                            <use xlink:href="#path-6"></use>
                        </mask>
                        <g id="SVGID_8_"></g>
                        <polygon id="Shape" fill="#E62E52" fill-rule="nonzero" mask="url(#mask-7)" points="63.6447754 -14.6181641 63.6447754 61.7714844 -12.197998 61.0996094"></polygon>
                    </g>
                </g>
                <g id="Clipped" transform="translate(12.000000, 10.000000)">
                    <mask id="mask-9" fill="white">
                        <use xlink:href="#path-8"></use>
                    </mask>
                    <g id="SVGID_10_"></g>
                    <polygon id="Shape" fill="url(#linearGradient-10)" fill-rule="nonzero" opacity="0.7" mask="url(#mask-9)" points="58.7189941 60.953125 19.4689941 22.0996094 50.4689941 -4.7338867 50.5939941 26.015625 66.0939941 41.515625"></polygon>
                </g>
            </g>
        </g>
    </g>
</svg>